HIERARCHY
ROOT Hips
{
 OFFSET 0.000000 0.000000 0.000000
 CHANNELS 6 Xposition Yposition Zposition Yrotation Xrotation Zrotation
 JOINT Chest
 {
  OFFSET 0.000000 9.585900 0.002600
  CHANNELS 3 Yrotation Xrotation Zrotation
  JOINT Chest2
  {
   OFFSET 0.000000 9.601200 -0.005300
   CHANNELS 3 Yrotation Xrotation Zrotation
   JOINT Chest3
   {
    OFFSET 0.000000 9.561800 0.000000
    CHANNELS 3 Yrotation Xrotation Zrotation
    JOINT Chest4
    {
     OFFSET 0.000000 9.552100 0.000000
     CHANNELS 3 Yrotation Xrotation Zrotation
     JOINT Neck
     {
      OFFSET 0.000000 14.453000 0.000000
      CHANNELS 3 Yrotation Xrotation Zrotation
      JOINT Head
      {
       OFFSET 0.000000 8.936500 -0.011300
       CHANNELS 3 Yrotation Xrotation Zrotation
       End Site
       {
        OFFSET 0.000000 17.073600 -0.006000
       }
      }
     }
     JOINT RightCollar
     {
      OFFSET -2.921100 9.558500 0.000000
      CHANNELS 3 Yrotation Xrotation Zrotation
      JOINT RightShoulder
      {
       OFFSET -13.519700 0.000000 0.000000
       CHANNELS 3 Yrotation Xrotation Zrotation
       JOINT RightElbow
       {
        OFFSET 0.000000 -29.696600 0.000000
        CHANNELS 3 Yrotation Xrotation Zrotation
        JOINT RightWrist
        {
         OFFSET 0.000000 -24.004700 0.000000
         CHANNELS 3 Yrotation Xrotation Zrotation
         End Site
         {
          OFFSET 0.000000 -17.728500 0.000000
         }
        }
       }
      }
     }
     JOINT LeftCollar
     {
      OFFSET 2.921100 9.558500 0.000000
      CHANNELS 3 Yrotation Xrotation Zrotation
      JOINT LeftShoulder
      {
       OFFSET 13.519700 0.000000 0.000000
       CHANNELS 3 Yrotation Xrotation Zrotation
       JOINT LeftElbow
       {
        OFFSET 0.000000 -29.696600 0.000000
        CHANNELS 3 Yrotation Xrotation Zrotation
        JOINT LeftWrist
        {
         OFFSET 0.000000 -24.004700 0.000000
         CHANNELS 3 Yrotation Xrotation Zrotation
         End Site
         {
          OFFSET 0.000000 -17.728500 0.000000
         }
        }
       }
      }
     }
    }
   }
  }
 }
 JOINT RightHip
 {
  OFFSET -7.771700 -0.012900 -0.001300
  CHANNELS 3 Yrotation Xrotation Zrotation
  JOINT RightKnee
  {
   OFFSET 0.000000 -40.869800 0.001200
   CHANNELS 3 Yrotation Xrotation Zrotation
   JOINT RightAnkle
   {
    OFFSET 0.000000 -39.717900 0.002100
    CHANNELS 3 Yrotation Xrotation Zrotation
    JOINT RightToe
    {
     OFFSET 0.000000 -4.965400 11.033500
     CHANNELS 3 Yrotation Xrotation Zrotation
     End Site
     {
      OFFSET 0.000000 -1.423100 5.872300
     }
    }
   }
  }
 }
 JOINT LeftHip
 {
  OFFSET 7.771700 -0.012900 -0.001300
  CHANNELS 3 Yrotation Xrotation Zrotation
  JOINT LeftKnee
  {
   OFFSET 0.000000 -40.869800 0.001200
   CHANNELS 3 Yrotation Xrotation Zrotation
   JOINT LeftAnkle
   {
    OFFSET 0.000000 -39.717900 0.002100
    CHANNELS 3 Yrotation Xrotation Zrotation
    JOINT LeftToe
    {
     OFFSET 0.000000 -4.965400 11.033500
     CHANNELS 3 Yrotation Xrotation Zrotation
     End Site
     {
      OFFSET 0.000000 -1.423100 5.872300
     }
    }
   }
  }
 }
}
MOTION
Frames: 11
Frame Time: 0.008333
0.000000 85.388000 0.000000 0.000000 -5.767877 0.000000 0.000000 11.653817 0.000000 0.000000 -5.885947 0.000000 0.000000 -0.000000 0.000000 0.000000 -0.000000 0.000000 0.000000 12.528835 0.000000 0.000000 0.711642 0.000000 0.000000 -0.000000 0.000000 0.000000 0.000000 -90.000000 0.000000 -2.309062 0.000000 0.000000 2.309062 0.000000 0.000000 -0.000000 0.000000 0.000000 -0.000000 90.000000 0.000000 -2.309062 0.000000 0.000000 2.309062 0.000000 0.000000 8.520406 0.000000 0.000000 1.905762 0.000000 -0.000000 -4.658285 0.000000 0.000000 -0.000000 0.000000 0.000000 8.520406 0.000000 0.000000 1.905762 0.000000 -0.000000 -4.658285 0.000000 0.000000 -0.000000 0.000000
-5.890880 55.450218 23.844871 178.701691 -29.246951 -8.888988 1.326738 14.145758 5.238901 0.714822 8.150043 2.498915 0.947217 10.169303 3.138982 0.719036 8.140426 2.501766 7.985472 25.964147 10.424401 6.550415 3.272193 9.855196 6.460753 -2.349133 -4.247577 9.104772 -45.636641 -5.453697 -43.030519 -59.723735 56.595424 2.596900 -7.246493 -10.331552 -12.573757 2.866534 -1.375073 6.050231 -3.667929 -1.242491 -86.858133 -71.694923 95.447414 9.875807 -13.704425 -9.014970 -17.390217 -37.148074 7.712215 31.505392 86.595784 28.194632 0.268295 -17.103844 -0.876771 0.003075 0.571893 -0.024632 -12.385932 -48.403050 14.353770 178.922967 80.024349 174.078967 -2.228222 -18.244807 2.516060 -0.043791 -0.531293 -0.033700
-5.887188 55.449973 23.852183 178.707758 -29.269225 -8.887578 1.335699 14.157189 5.251557 0.708566 8.161103 2.498410 0.963809 10.181715 3.163390 0.755901 8.167152 2.541577 7.938637 25.997159 10.375847 6.539652 3.304786 9.833980 6.391554 -2.311847 -4.220236 8.959003 -45.543398 -5.359835 -42.966937 -59.834622 56.696690 2.623976 -7.198242 -10.436095 -12.617843 2.813189 -1.415878 6.010498 -3.709241 -1.255612 -87.002576 -71.664672 95.581052 9.902676 -13.708118 -9.025599 -17.403930 -37.128166 7.711576 31.474184 86.591632 28.158416 0.271112 -17.096897 -0.884296 -0.000706 0.573726 -0.023404 -12.442083 -48.380404 14.325248 178.797452 80.028701 173.968013 -2.172404 -18.234837 2.447334 -0.047184 -0.535034 -0.029985
-5.883646 55.449096 23.861277 178.721641 -29.292225 -8.887777 1.337277 14.168839 5.260856 0.713322 8.170881 2.506569 0.968692 10.192629 3.172956 0.742084 8.164767 2.532787 7.944955 26.030990 10.367778 6.544584 3.372197 9.808731 6.359523 -2.249993 -4.131070 8.756902 -45.477403 -5.211216 -42.762111 -59.901572 56.661041 2.757543 -7.272569 -10.525161 -12.599798 2.809449 -1.404831 5.959822 -3.751269 -1.277946 -87.125181 -71.633795 95.709079 9.939073 -13.723168 -9.038140 -17.413444 -37.108904 7.708157 31.359549 86.588642 28.040819 0.273326 -17.088581 -0.889035 0.001347 0.573894 -0.015351 -12.508701 -48.358008 14.295070 178.649885 80.033865 173.833241 -2.120524 -18.221507 2.380625 -0.050038 -0.538302 -0.029661
-5.880166 55.447335 23.872293 178.739923 -29.313285 -8.891297 1.328525 14.185326 5.263518 0.725139 8.172779 2.518663 0.971856 10.201091 3.181780 0.729937 8.165524 2.525772 7.933727 26.039217 10.354955 6.562667 3.477018 9.771185 6.326121 -2.209205 -4.057993 8.489030 -45.429910 -4.991921 -42.530857 -60.136118 56.575470 2.758817 -7.278072 -10.535024 -12.592953 2.814430 -1.386475 5.916950 -3.820238 -1.306366 -87.176239 -71.601857 95.766666 9.979018 -13.736570 -9.035390 -17.416777 -37.092355 7.700588 31.266945 86.587181 27.954694 0.271716 -17.082119 -0.891336 0.004380 0.576564 -0.015217 -12.580116 -48.339964 14.265268 178.445202 80.038032 173.644426 -2.078749 -18.205211 2.314389 -0.050942 -0.541511 -0.030090
-5.876799 55.447005 23.880858 178.756784 -29.360689 -8.897286 1.324214 14.227064 5.270310 0.730604 8.171509 2.532081 0.972867 10.208699 3.189689 0.730552 8.171487 2.532064 7.947953 26.128278 10.319900 6.565111 3.504968 9.734168 6.283427 -2.176893 -4.001840 8.204668 -45.408272 -4.751242 -42.321435 -60.332561 56.580936 2.781470 -7.290992 -10.595211 -12.604848 2.815523 -1.355862 5.892096 -3.901572 -1.356069 -87.169749 -71.580466 95.767194 10.018092 -13.742720 -9.024431 -17.399711 -37.048330 7.683399 31.415394 86.572363 28.113152 0.251411 -17.076652 -0.891489 0.006808 0.578610 -0.014267 -12.607697 -48.296049 14.223229 178.246095 80.042068 173.469549 -2.063226 -18.194425 2.267533 -0.041683 -0.541583 -0.031254
-5.874538 55.442970 23.895647 178.760847 -29.372261 -8.897648 1.312501 14.196782 5.284658 0.726899 8.184560 2.540226 0.975412 10.231217 3.185241 0.728496 8.176304 2.537968 7.954139 26.197017 10.278677 6.583140 3.569117 9.687598 6.253800 -2.146532 -3.946319 7.930936 -45.402063 -4.512685 -42.155077 -60.513871 56.619824 2.793281 -7.302184 -10.644298 -12.610246 2.814026 -1.374658 5.888681 -3.929524 -1.355295 -87.273583 -71.569629 95.867539 10.053119 -13.747864 -9.004947 -17.361908 -37.050768 7.680033 31.289197 86.569651 28.005011 0.232934 -17.062005 -0.880595 0.011739 0.577887 -0.012136 -12.661218 -48.294077 14.183895 177.840165 80.041908 173.095832 -2.039105 -18.178631 2.203447 -0.042855 -0.540563 -0.042211
-5.873859 55.438781 23.910152 178.762920 -29.388246 -8.895688 1.299248 14.186123 5.288918 0.719534 8.183040 2.548285 0.964151 10.228553 3.204258 0.736481 8.198507 2.525804 7.952625 26.257741 10.225415 6.605971 3.650428 9.627769 6.232005 -2.118628 -3.900238 7.691642 -45.405043 -4.297368 -42.039995 -60.682668 56.689375 2.807800 -7.308266 -10.695797 -12.612941 2.816521 -1.372124 5.895838 -3.935219 -1.385798 -87.417523 -71.561629 96.004792 10.083377 -13.739926 -8.988519 -17.350821 -37.045853 7.682078 31.300409 86.561787 28.012555 0.237845 -17.053084 -0.881917 -0.001073 0.583337 -0.007947 -12.685463 -48.291322 14.139879 177.502779 80.042244 172.788749 -2.017717 -18.160314 2.151335 -0.049970 -0.546438 -0.038391
-5.874444 55.436072 23.921708 178.766417 -29.423848 -8.895717 1.293734 14.207453 5.291439 0.707830 8.169577 2.556395 0.953160 10.226400 3.214314 0.714409 8.185759 2.551871 7.960256 26.352056 10.131195 6.623177 3.730995 9.556965 6.255789 -2.061842 -3.920026 7.454082 -45.419327 -4.075074 -41.960840 -60.849187 56.768272 2.827984 -7.308173 -10.748476 -12.607267 2.827858 -1.368170 5.926583 -3.917911 -1.452961 -87.510401 -71.565667 96.096145 10.104442 -13.734289 -8.987720 -17.311036 -37.022450 7.674624 31.179342 86.561052 27.895322 0.226222 -17.041120 -0.868558 -0.002889 0.582953 -0.004934 -12.681033 -48.266394 14.098958 177.291780 80.045329 172.599427 -2.012902 -18.148554 2.126091 -0.047452 -0.547369 -0.036236
-5.875018 55.435552 23.929679 178.760711 -29.482860 -8.900550 1.300797 14.250273 5.303402 0.701663 8.162191 2.560863 0.944184 10.220856 3.221620 0.709755 8.188059 2.555654 7.946906 26.419467 10.055562 6.624958 3.809005 9.474120 6.237191 -2.042496 -3.869627 7.337459 -45.426634 -3.962450 -41.899889 -61.021353 56.829222 2.848959 -7.306221 -10.777891 -12.606372 2.834463 -1.362062 5.916764 -3.948451 -1.460957 -87.495835 -71.595264 96.094042 10.109963 -13.705472 -8.977707 -17.240140 -36.973247 7.651326 30.907839 86.557358 27.650244 0.225872 -17.030915 -0.862366 -0.002308 0.583556 -0.000676 -12.667304 -48.213888 14.026599 176.838714 80.042500 172.203781 -2.008200 -18.151925 2.074250 -0.038573 -0.541832 -0.044370
-5.878770 55.431590 23.943092 178.760253 -29.495758 -8.899009 1.285531 14.230815 5.306837 0.698641 8.163639 2.561492 0.946817 10.238865 3.219427 0.700105 8.174508 2.568473 7.910721 26.486847 9.963205 6.604073 3.884530 9.376676 6.221448 -2.036426 -3.824263 7.276848 -45.429824 -3.897796 -41.849118 -61.199889 56.855869 2.872632 -7.304865 -10.775308 -12.600565 2.849739 -1.372661 5.917683 -3.952524 -1.472573 -87.492598 -71.592876 96.095585 10.122172 -13.696484 -8.971728 -17.216784 -36.971001 7.655033 30.655328 86.556860 27.392578 0.226846 -17.023297 -0.849940 -0.007742 0.590128 0.002584 -12.666571 -48.213840 13.987190 176.603444 80.044702 171.991054 -1.995977 -18.140310 2.057057 -0.041870 -0.540001 -0.051657
